<svg width="605" height="0" viewBox="0 0 605 68" fill="none" xmlns="http://www.w3.org/2000/svg">
<path d="M0.00312805 10.4V0.799988H48.0031V10.4H28.8031V68H19.2031V10.4H0.00312805Z" fill="white"/>
<path d="M42.7531 68V34.4C42.7531 33.952 42.9131 33.248 43.2331 32.288L57.6331 3.48799C57.8251 2.97599 58.4331 2.39999 59.4571 1.75999C60.5451 1.11999 61.3771 0.799988 61.9531 0.799988H71.5531C72.1291 0.799988 72.9291 1.11999 73.9531 1.75999C75.0411 2.39999 75.6811 2.97599 75.8731 3.48799L90.2731 32.288C90.5931 33.056 90.7531 33.76 90.7531 34.4V68H81.1531V48.8H52.3531V68H42.7531ZM52.3531 39.2H81.1531V35.552L68.5771 10.4H64.9291L52.3531 35.552V39.2Z" fill="white"/>
<path d="M100.316 68V0.799988H148.316V10.4H109.916V29.6H138.716V39.2H109.916V58.4H148.316V68H100.316Z" fill="white"/>
<path d="M157.878 68V0.799988H167.478V52.16L181.878 30.56V24.8H191.478V30.56L205.878 52.16V0.799988H215.478V68H206.646L186.678 40.64L166.71 68H157.878Z" fill="white"/>
<path d="M225.097 68V34.4C225.097 33.952 225.257 33.248 225.577 32.288L239.977 3.48799C240.169 2.97599 240.777 2.39999 241.801 1.75999C242.889 1.11999 243.721 0.799988 244.297 0.799988H253.897C254.473 0.799988 255.273 1.11999 256.297 1.75999C257.385 2.39999 258.025 2.97599 258.217 3.48799L272.617 32.288C272.937 33.056 273.097 33.76 273.097 34.4V68H263.497V48.8H234.697V68H225.097ZM234.697 39.2H263.497V35.552L250.921 10.4H247.273L234.697 35.552V39.2Z" fill="white"/>
<path d="M282.659 68V0.799988H291.683L321.059 49.952V0.799988H330.659V68H321.731L292.259 18.848V68H282.659Z" fill="white"/>
<path d="M383.441 68V0.799988H393.041V29.6H410.225L421.841 17.984V0.799988H431.441V20C431.441 20.256 431.249 20.832 430.865 21.728C430.545 22.624 430.289 23.168 430.097 23.36L419.057 34.4L430.097 45.44C430.289 45.632 430.545 46.176 430.865 47.072C431.249 47.968 431.441 48.544 431.441 48.8V68H421.841V50.816L410.225 39.2H393.041V68H383.441Z" fill="white"/>
<path d="M441.003 68V34.4C441.003 33.952 441.163 33.248 441.483 32.288L455.883 3.48799C456.075 2.97599 456.683 2.39999 457.707 1.75999C458.795 1.11999 459.627 0.799988 460.203 0.799988H469.803C470.379 0.799988 471.179 1.11999 472.203 1.75999C473.291 2.39999 473.931 2.97599 474.123 3.48799L488.523 32.288C488.843 33.056 489.003 33.76 489.003 34.4V68H479.403V48.8H450.603V68H441.003ZM450.603 39.2H479.403V35.552L466.827 10.4H463.179L450.603 35.552V39.2Z" fill="white"/>
<path d="M498.566 68V0.799988H507.59L536.966 49.952V0.799988H546.566V68H537.638L508.166 18.848V68H498.566Z" fill="white"/>
<path d="M556.128 53.504V15.2C556.128 11.232 557.536 7.83999 560.352 5.02399C563.168 2.20799 566.56 0.799988 570.528 0.799988H589.632C593.6 0.799988 596.992 2.20799 599.808 5.02399C602.624 7.83999 604.032 11.232 604.032 15.2V20H594.432V15.2C594.432 13.92 593.952 12.8 592.992 11.84C592.032 10.88 590.912 10.4 589.632 10.4H570.528C569.248 10.4 568.128 10.88 567.168 11.84C566.208 12.8 565.728 13.92 565.728 15.2V53.504C565.728 54.784 566.208 55.904 567.168 56.864C568.128 57.824 569.248 58.304 570.528 58.304H589.632C590.976 58.304 592.096 57.824 592.992 56.864C593.952 55.904 594.432 54.784 594.432 53.504V44.672L579.648 41.216L581.76 31.904L600.288 36.128C601.376 36.32 602.272 36.864 602.976 37.76C603.68 38.656 604.032 39.68 604.032 40.832V53.504C604.032 57.472 602.624 60.864 599.808 63.68C596.992 66.496 593.6 67.904 589.632 67.904H570.528C566.56 67.904 563.168 66.496 560.352 63.68C557.536 60.864 556.128 57.472 556.128 53.504Z" fill="white"/>
</svg>
