<svg id="myname" width="717" height="100" viewBox="0 0 717 79" fill="none" xmlns="http://www.w3.org/2000/svg">
<mask id="path-1-outside-1" maskUnits="userSpaceOnUse" x="0.368881" y="0.127991" width="717" height="79" fill="black">
<rect fill="white" x="0.368881" y="0.127991" width="717" height="79"/>
<path d="M54.5209 5.99199V16.84H36.6649V73H23.2249V16.84H5.36888V5.99199H54.5209Z"/>
<path d="M105.415 60.232H78.7271L74.3111 73H60.1991L84.2951 5.89599H99.9431L124.039 73H109.831L105.415 60.232ZM101.767 49.48L92.0711 21.448L82.3751 49.48H101.767Z"/>
<path d="M146.486 16.84V33.64H169.046V44.296H146.486V62.056H171.926V73H133.046V5.89599H171.926V16.84H146.486Z"/>
<path d="M273.708 5.99199L254.988 73H239.148L226.572 25.288L213.42 73L197.676 73.096L179.628 5.99199H194.028L205.836 58.024L219.468 5.99199H234.444L247.308 57.736L259.212 5.99199H273.708Z"/>
<path d="M323.571 60.232H296.883L292.467 73H278.355L302.451 5.89599H318.099L342.195 73H327.987L323.571 60.232ZM319.923 49.48L310.227 21.448L300.531 49.48H319.923Z"/>
<path d="M408.514 73H395.074L364.642 27.016V73H351.202V5.89599H364.642L395.074 51.976V5.89599H408.514V73Z"/>
<path d="M482.495 73L458.111 43.144V73H444.671V5.99199H458.111V36.04L482.495 5.99199H498.719L471.071 39.208L499.487 73H482.495Z"/>
<path d="M549.415 60.232H522.727L518.311 73H504.199L528.295 5.89599H543.943L568.039 73H553.831L549.415 60.232ZM545.767 49.48L536.071 21.448L526.375 49.48H545.767Z"/>
<path d="M634.358 73H620.918L590.486 27.016V73H577.046V5.89599H590.486L620.918 51.976V5.89599H634.358V73Z"/>
<path d="M694.296 26.152C692.76 23.336 690.648 21.192 687.96 19.72C685.272 18.248 682.136 17.512 678.552 17.512C674.584 17.512 671.064 18.408 667.992 20.2C664.92 21.992 662.52 24.552 660.792 27.88C659.064 31.208 658.2 35.048 658.2 39.4C658.2 43.88 659.064 47.784 660.792 51.112C662.584 54.44 665.048 57 668.184 58.792C671.32 60.584 674.968 61.48 679.128 61.48C684.248 61.48 688.44 60.136 691.704 57.448C694.968 54.696 697.112 50.888 698.136 46.024H675.096V35.752H711.384V47.464C710.488 52.136 708.568 56.456 705.624 60.424C702.68 64.392 698.872 67.592 694.2 70.024C689.592 72.392 684.408 73.576 678.648 73.576C672.184 73.576 666.328 72.136 661.08 69.256C655.896 66.312 651.8 62.248 648.792 57.064C645.848 51.88 644.376 45.992 644.376 39.4C644.376 32.808 645.848 26.92 648.792 21.736C651.8 16.488 655.896 12.424 661.08 9.54399C666.328 6.59999 672.152 5.12799 678.552 5.12799C686.104 5.12799 692.664 6.98399 698.232 10.696C703.8 14.344 707.64 19.496 709.752 26.152H694.296Z"/>
</mask>
<path d="M54.5209 5.99199V16.84H36.6649V73H23.2249V16.84H5.36888V5.99199H54.5209Z" stroke="white" stroke-width="10" mask="url(#path-1-outside-1)"/>
<path d="M105.415 60.232H78.7271L74.3111 73H60.1991L84.2951 5.89599H99.9431L124.039 73H109.831L105.415 60.232ZM101.767 49.48L92.0711 21.448L82.3751 49.48H101.767Z" stroke="white" stroke-width="10" mask="url(#path-1-outside-1)"/>
<path d="M146.486 16.84V33.64H169.046V44.296H146.486V62.056H171.926V73H133.046V5.89599H171.926V16.84H146.486Z" stroke="white" stroke-width="10" mask="url(#path-1-outside-1)"/>
<path d="M273.708 5.99199L254.988 73H239.148L226.572 25.288L213.42 73L197.676 73.096L179.628 5.99199H194.028L205.836 58.024L219.468 5.99199H234.444L247.308 57.736L259.212 5.99199H273.708Z" stroke="white" stroke-width="10" mask="url(#path-1-outside-1)"/>
<path d="M323.571 60.232H296.883L292.467 73H278.355L302.451 5.89599H318.099L342.195 73H327.987L323.571 60.232ZM319.923 49.48L310.227 21.448L300.531 49.48H319.923Z" stroke="white" stroke-width="10" mask="url(#path-1-outside-1)"/>
<path d="M408.514 73H395.074L364.642 27.016V73H351.202V5.89599H364.642L395.074 51.976V5.89599H408.514V73Z" stroke="white" stroke-width="10" mask="url(#path-1-outside-1)"/>
<path d="M482.495 73L458.111 43.144V73H444.671V5.99199H458.111V36.04L482.495 5.99199H498.719L471.071 39.208L499.487 73H482.495Z" stroke="white" stroke-width="10" mask="url(#path-1-outside-1)"/>
<path d="M549.415 60.232H522.727L518.311 73H504.199L528.295 5.89599H543.943L568.039 73H553.831L549.415 60.232ZM545.767 49.48L536.071 21.448L526.375 49.48H545.767Z" stroke="white" stroke-width="10" mask="url(#path-1-outside-1)"/>
<path d="M634.358 73H620.918L590.486 27.016V73H577.046V5.89599H590.486L620.918 51.976V5.89599H634.358V73Z" stroke="white" stroke-width="10" mask="url(#path-1-outside-1)"/>
<path d="M694.296 26.152C692.76 23.336 690.648 21.192 687.96 19.72C685.272 18.248 682.136 17.512 678.552 17.512C674.584 17.512 671.064 18.408 667.992 20.2C664.92 21.992 662.52 24.552 660.792 27.88C659.064 31.208 658.2 35.048 658.2 39.4C658.2 43.88 659.064 47.784 660.792 51.112C662.584 54.44 665.048 57 668.184 58.792C671.32 60.584 674.968 61.48 679.128 61.48C684.248 61.48 688.44 60.136 691.704 57.448C694.968 54.696 697.112 50.888 698.136 46.024H675.096V35.752H711.384V47.464C710.488 52.136 708.568 56.456 705.624 60.424C702.68 64.392 698.872 67.592 694.2 70.024C689.592 72.392 684.408 73.576 678.648 73.576C672.184 73.576 666.328 72.136 661.08 69.256C655.896 66.312 651.8 62.248 648.792 57.064C645.848 51.88 644.376 45.992 644.376 39.4C644.376 32.808 645.848 26.92 648.792 21.736C651.8 16.488 655.896 12.424 661.08 9.54399C666.328 6.59999 672.152 5.12799 678.552 5.12799C686.104 5.12799 692.664 6.98399 698.232 10.696C703.8 14.344 707.64 19.496 709.752 26.152H694.296Z" stroke="white" stroke-width="10" mask="url(#path-1-outside-1)"/>
</svg>
