<svg width="60" height="60" xmlns="http://www.w3.org/2000/svg">

 <g>
  <title>background</title>
  <rect fill="none" id="canvas_background" height="402" width="582" y="-1" x="-1"/>
 </g>
 <g>
  <title>Layer 1</title>
  <g id="svg_1">
   <path id="svg_2" fill="#FFFFFF" class="active-path" d="m30.08,0.08c-16.542,0 -30,13.458 -30,30s13.458,30 30,30s30,-13.458 30,-30s-13.458,-30 -30,-30zm15.78359,45.3113l-22.22059,0.5147c-0.169,0.115 -0.366,0.174 -0.563,0.174c-0.16,0 -0.321,-0.038 -0.467,-0.116c-0.328,-0.173 -0.7205,-20.76294 -0.7205,-21.13394l0.1875,-9.75006c0,-0.371 0.205,-0.711 0.533,-0.884c0.328,-0.174 22.72399,0.01 23.03099,0.218l0.00001,14.84c0.272,0.186 0.436,0.495 0.436,0.826s-46.08,-30.08 -0.51053,0.826z"/>
  </g>
 </g>
</svg>